<svg xmlns="http://www.w3.org/2000/svg" viewBox="0 0 64 64">
  <defs>
    <!-- Vibrant gradient background -->
    <linearGradient id="bgGradient" x1="0%" y1="0%" x2="100%" y2="100%">
      <stop offset="0%" style="stop-color:#3b82f6;stop-opacity:1" />
      <stop offset="50%" style="stop-color:#8b5cf6;stop-opacity:1" />
      <stop offset="100%" style="stop-color:#ec4899;stop-opacity:1" />
    </linearGradient>
    
    <!-- Bright white for M -->
    <linearGradient id="mGradient" x1="0%" y1="0%" x2="100%" y2="100%">
      <stop offset="0%" style="stop-color:#ffffff;stop-opacity:1" />
      <stop offset="100%" style="stop-color:#f0f0f0;stop-opacity:1" />
    </linearGradient>
    
    <!-- Subtle glow -->
    <filter id="glow">
      <feGaussianBlur stdDeviation="1" result="coloredBlur"/>
      <feMerge>
        <feMergeNode in="coloredBlur"/>
        <feMergeNode in="SourceGraphic"/>
      </feMerge>
    </filter>
  </defs>
  
  <!-- Rounded background -->
  <rect width="64" height="64" rx="18" fill="url(#bgGradient)"/>
  
  <!-- Memory circuit pattern (very subtle) -->
  <g opacity="0.12" stroke="#fff" stroke-width="0.8" fill="none">
    <path d="M 16 20 Q 32 28 48 20"/>
    <path d="M 16 44 Q 32 36 48 44"/>
    <circle cx="16" cy="20" r="1.5" fill="#fff"/>
    <circle cx="48" cy="20" r="1.5" fill="#fff"/>
    <circle cx="16" cy="44" r="1.5" fill="#fff"/>
    <circle cx="48" cy="44" r="1.5" fill="#fff"/>
  </g>
  
  <!-- Bold M letter - MemVerse -->
  <g filter="url(#glow)">
    <!-- Left leg -->
    <rect x="18" y="20" width="6" height="24" rx="3" fill="url(#mGradient)"/>
    
    <!-- Center V -->
    <path d="M 24 20 L 32 38 L 40 20 L 40 44 L 46 44 L 46 20 L 40 20 L 32 36 L 24 20 Z" 
          fill="url(#mGradient)"/>
    
    <!-- Right leg -->
    <rect x="46" y="20" width="6" height="24" rx="3" fill="url(#mGradient)"/>
  </g>
  
  <!-- Small memory indicator dots -->
  <circle cx="21" cy="24" r="1.2" fill="#fff" opacity="0.7"/>
  <circle cx="43" cy="24" r="1.2" fill="#fff" opacity="0.7"/>
</svg>
